<?xml version="1.0" encoding="utf-8"?>
<!-- Generator: Adobe Illustrator 28.3.0, SVG Export Plug-In . SVG Version: 6.00 Build 0)  -->
<svg version="1.1" id="Layer_1" xmlns="http://www.w3.org/2000/svg" xmlns:xlink="http://www.w3.org/1999/xlink" x="0px" y="0px"
	 viewBox="0 0 800 800" style="enable-background:new 0 0 800 800;" xml:space="preserve">
<style type="text/css">
	.st0{fill:none;}
	.st1{fill:#B2CCD6;}
</style>
<rect class="st0" width="800" height="800"/>
<path class="st1" d="M400.9,33C193.2,32.2,24.2,200,23.4,407.7c-0.6,163,103.8,307.8,258.7,358.7c18.8,3,24.8-8.7,24.8-18.8V684
	c-104.2,22.6-126.4-49.3-126.4-49.3c-7-23.4-22.3-43.4-42.9-56.4c-34.2-23.3,2.6-22.6,2.6-22.6c23.9,3.1,45.1,16.9,57.5,37.6
	c21.7,38.7,70.6,52.6,109.4,31.2c1.7-19.1,10.1-36.9,23.7-50.4c-80.5-8.3-170-40.6-170-183.9c-1.1-37.6,12.4-74.1,37.6-101.9
	c-11.5-32.4-10.1-67.9,3.8-99.3c0,0,31.6-10.2,103.4,37.6c61.6-16.6,126.5-16.6,188.1,0c71.8-48.5,103.4-37.6,103.4-37.6
	c13.9,31.4,15.2,66.9,3.8,99.3c25.2,27.8,38.7,64.4,37.6,101.9c0,143.7-88,175.3-171.9,184.7c18.3,18.4,27.7,43.7,26,69.6v103.1
	c0,10.2,6,22.2,25.2,18.8C715.2,701.6,822.6,489,757.7,291.7C707.1,137.5,563.2,33.2,400.9,33z"/>
</svg>
