<?xml version="1.0" encoding="utf-8"?>
<!-- Generator: Adobe Illustrator 28.3.0, SVG Export Plug-In . SVG Version: 6.00 Build 0)  -->
<svg version="1.1" id="Layer_1" xmlns="http://www.w3.org/2000/svg" xmlns:xlink="http://www.w3.org/1999/xlink" x="0px" y="0px"
	 viewBox="0 0 800 800" style="enable-background:new 0 0 800 800;" xml:space="preserve">
<style type="text/css">
	.st0{fill:#B2CCD6;}
</style>
<path class="st0" d="M672.3,348.9c-3.6,15.9-5.9,30.4-10.4,44.9c-16.4,59.7-54.8,111.1-107.4,143.8c-44.9,26.1-98.8,32-148.3,16.3
	c-15.4-5.6-29.4-14.7-40.6-26.6c-3.6-4.5-6.8-10.7-10.9-14.9L340,569.8c-6.4,22.9-9.9,47.4-18.2,69c-10.4,27.2-23.6,53.3-39.6,77.7
	c-8,12.2-16.2,23.8-24.7,35.3c-3.1,4.2-5.6,11.6-13.5,10.1c-6.4-6.3-4.6-23.6-6.4-34.2c-5.3-38.3-4.6-77.2,2.2-115.2l55.5-235.3
	l-3.9-10.4l-5.9-21.6c-5.8-27.4-4.1-55.9,4.8-82.4c10.3-26.4,38.4-65.8,79.9-58.3c33.4,6.6,55.2,39,48.6,72.4
	c-0.6,3.1-1.5,6.2-2.6,9.2c-9.5,47.3-27.1,86.3-36.2,132.9c-4.2,36.3,21.8,69.2,58.1,73.5c9.5,1.1,19.1,0.1,28.2-2.8
	c56.7-14.3,82.8-69.7,99.2-124.8c3.2-13.2,5.8-26.6,7.6-40.1c6.9-36.6,5-74.3-5.6-109.9c-17-46.6-56.3-81.5-104.6-93.1
	c-13.5-2.9-27.2-5.1-40.9-6.4l-17.1-0.3c-20.5-0.3-40.9,2.4-60.6,8.1c-59.9,16.1-108.2,60.5-129.2,118.9
	c-10.5,27-14.6,56.1-12.1,84.9c1.9,17.6,7.1,34.8,15.4,50.5c4.9,8.3,16.5,18,18.5,27.5c0.4,8.3-1.2,16.6-4.7,24.2
	c-1.3,9.5-4.1,18.8-8.4,27.4c-8.2,10.5-26.7-0.5-34-5c-37.5-25.9-61.5-67.3-65.3-112.7c-3.8-21.1-4.2-42.7-1.1-63.9
	c2.1-13.9,5.1-27.7,9-41.2c22.1-67.4,70-123.4,133.2-155.6c28.4-14.3,58.9-24.2,90.3-29.2l30.3-3.6l14.1-0.9
	c22.2-1,44.5,0.2,66.4,3.6c105.7,13.5,190.3,94.1,208.8,199.1C680.2,281,679.1,315.4,672.3,348.9L672.3,348.9z"/>
</svg>
