<?xml version="1.0" encoding="utf-8"?>
<!-- Generator: Adobe Illustrator 28.3.0, SVG Export Plug-In . SVG Version: 6.00 Build 0)  -->
<svg version="1.1" id="Layer_1" xmlns="http://www.w3.org/2000/svg" xmlns:xlink="http://www.w3.org/1999/xlink" x="0px" y="0px"
	 viewBox="0 0 800 800" style="enable-background:new 0 0 800 800;" xml:space="preserve">
<style type="text/css">
	.st0{fill:#B2CCD6;}
</style>
<g id="DfC5AH_00000050620850330405670720000007246955187717018812_">
	<g>
		<path class="st0" d="M86.3,532c10.8-13.1,21.7-26.1,32.5-39.2c12.8-15.4,25.5-30.9,38.4-46.2c37.7-44.8,104.7-45.6,143.5-1.7
			c11.4,13,22.1,26.6,33.6,40.4c18.5-21.1,36.6-41.8,54.7-62.4c13.5-15.5,27-31,40.6-46.4c39.9-45,106.8-45.4,146.6-0.3
			c43.1,48.8,85.8,98,128.6,147c3.3,3.7,6.6,7.5,11.6,13.1c0-5.4,0-8.4,0-11.4c0-62.5,0-124.9,0.1-187.4c0-4.8,0.3-9.7,1.7-14.2
			c3.4-10.8,15.6-18.5,26.1-17.2c12.5,1.6,22.2,11.5,23,23.9c0.1,2.1,0.1,4.3,0.1,6.4c0,88.9,0.1,177.8,0,266.7
			c-0.1,80.2-53.5,145.6-132,161.2c-10.4,2.1-21.2,2.7-31.8,2.7c-135.3,0.2-270.6,0.3-405.9,0.1C116.8,767,51.9,713.9,36.2,635.4
			c-2.1-10.4-2.8-21.2-2.8-31.8c-0.2-135.1-0.2-270.1-0.1-405.2C33.4,124.4,77.1,62.2,145.2,41c16.3-5.1,34-7.8,51-7.9
			c89.9-0.8,179.9-0.4,269.8-0.3c19.9,0,32.4,15.3,27.2,32.9C490.1,76.7,480,83.8,467,84c-15.5,0.2-31,0.1-46.4,0.1
			c-74.5,0-148.9-0.2-223.4,0.1C140.1,84.2,95.6,122,85.8,178.2c-1,6-1.2,12.2-1.2,18.3c-0.1,109.4-0.1,218.9-0.1,328.3
			c0,2.1,0,4.2,0,6.3C85.2,531.5,85.7,531.7,86.3,532z M399.9,715.9c67.5,0,135.1,0.1,202.6,0c57.9-0.1,103.6-40.6,110.9-98
			c0.4-3-0.7-7-2.6-9.2C652.5,542,594.1,475.3,535.3,409c-5.4-6.1-13.4-11.1-21.1-13.5c-19.6-6.2-35.8,0.8-49.1,16.2
			c-36.5,42.2-73.3,84.1-110,126.1c-15.2,17.3-31.1,17.2-45.6-0.2c-15-18.1-30-36.1-45-54.2c-20.8-25.2-51.8-25.1-72.6,0.2
			c-32.8,40-65.4,80.3-98.8,119.8c-6.9,8.2-8.1,15.6-5.9,25.3c12,51.8,55.9,87,110.1,87.2C264.8,716.1,332.4,715.9,399.9,715.9z"/>
		<path class="st0" d="M665.1,186.5c0,9.7,0,18.4,0,27.2c0,16,0.1,32,0,48c-0.2,15.8-10.9,27.2-25.4,27.2
			c-14.2,0.1-25.6-11.5-25.8-27.1c-0.3-21.9-0.1-43.8-0.1-65.6c0-2.9,0-5.8,0-9.8c-3.5,0-6.3,0-9.1,0c-22.1,0-44.3,0.1-66.4-0.1
			c-12.2-0.1-21.9-7.1-25.4-17.3c-3.3-9.9-0.9-21.5,7.6-27.4c5.1-3.5,12.1-6,18.3-6.2c21.9-0.7,43.7-0.3,65.6-0.3c2.9,0,5.7,0,9.4,0
			c0-7.3,0-13.7,0-20c0-18.4-0.2-36.8,0.1-55.2c0.2-16.4,11-27.4,26.1-27.2c14.7,0.2,24.9,11.2,25,27.3c0.1,24.5,0,49.1,0,74.6
			c3.2,0.2,6,0.5,8.8,0.5c21.9,0,43.8,0,65.6,0c16.8,0.1,27.9,10.1,28,25.2c0.1,15.3-11.2,25.9-28.2,26c-21.6,0.1-43.2,0-64.8,0
			C671.7,186.5,668.9,186.5,665.1,186.5z"/>
		<path class="st0" d="M135.9,229.6c-0.5-51.7,41.2-94,92.9-94.3c52-0.3,94.4,41.1,94.8,92.5c0.5,52.2-41.2,94.9-93,95.2
			C178.4,323.4,136.4,282,135.9,229.6z M187.2,228.5c-0.3,23.9,18.4,43.1,42.1,43.2c23.3,0.2,42.6-18.6,43-41.7
			c0.5-23.8-18.3-43.3-41.9-43.5C206.4,186.3,187.4,204.7,187.2,228.5z"/>
	</g>
</g>
</svg>
